<svg xmlns="http://www.w3.org/2000/svg" viewBox="0 0 16 16"><path fill="#1976d2" d="M2 3h3.638a1 1 0 0 1 .64.232l.644.536a1 1 0 0 0 .64.232H14a1 1 0 0 1 1 1v1.2H3.9a1.6 1.6 0 0 0-1.54 1.17L1 11.8V4a1 1 0 0 1 1-1Z"/><path fill="#2286e0" d="M3.9 6.2h10.9a.8.8 0 0 1 .77 1.01l-1.37 4.9a1.2 1.2 0 0 1-1.16.89H2.2a.8.8 0 0 1-.77-1.01l1.31-4.7a1.2 1.2 0 0 1 1.16-.9Z"/><g fill="none" stroke="#bbdefb" stroke-width="2.1" stroke-linecap="round" stroke-linejoin="round" transform="translate(7.4 5.6) scale(0.56)"><path d="M8 6.4v4.9"/><path d="M7.5 7.4C6.8 4.7 4.3 2.4 2.8 3.5 1.4 4.6 3.3 7.9 7.5 8.7Z"/><path d="M8.5 7.4c.7-2.7 3.2-5 4.7-3.9 1.4 1.1-.5 4.4-4.7 5.2Z"/><path d="M7.6 10c-1.9-.3-3.6.6-3.3 1.9.3 1.2 2.2.8 3.3-.8Z"/><path d="M8.4 10c1.9-.3 3.6.6 3.3 1.9-.3 1.2-2.2.8-3.3-.8Z"/></g></svg>
